<svg width="100" height="109" viewBox="0 0 100 109" fill="none" xmlns="http://www.w3.org/2000/svg">
<path d="M2 2H98V107H2V2Z" fill="#2E78BD"/>
<path d="M32.0745 8.184C33.6105 8.184 34.8052 9.25066 35.6585 11.384C31.9892 21.112 30.1545 33.784 30.1545 49.4V63.352H30.4105C35.1892 58.5733 42.5705 43.8107 52.5545 19.064C55.1145 15.8213 57.0772 14.2 58.4425 14.2H58.9545C60.4052 14.2 61.5572 15.0107 62.4105 16.632V19.064C60.0212 20.5147 54.1758 32.5893 44.8745 55.288L34.3785 71.032V71.288C44.0212 81.272 54.0478 86.264 64.4585 86.264H69.3225C72.4798 86.264 74.6132 85.9653 75.7225 85.368C78.0265 86.3067 79.1785 87.672 79.1785 89.464V90.488C79.1785 92.6213 75.4665 93.688 68.0425 93.688H66.1225C53.9198 93.688 42.2718 88.6533 31.1785 78.584H30.4105V93.432C30.4105 96.3333 29.0878 97.784 26.4425 97.784C24.0532 97.784 22.8585 96.3333 22.8585 93.432V78.2C19.7012 75.8107 18.1225 73.2507 18.1225 70.52C18.1225 68.216 19.5732 67.064 22.4745 67.064V48.888C22.4745 32.3333 24.6078 19.192 28.8745 9.464C29.9838 8.61066 31.0505 8.184 32.0745 8.184Z" fill="white"/>
<path d="M2 1H1V2V107V108H2H98H99V107V2V1H98H2Z" stroke="black" stroke-width="2"/>
</svg>
